<mxfile host="app.diagrams.net" modified="2022-11-05T03:25:09.676Z" agent="5.0 (X11; Linux x86_64) AppleWebKit/537.36 (KHTML, like Gecko) Chrome/106.0.0.0 Safari/537.36" etag="sr0b91kns55vNI-Kaewo" version="20.5.1" type="github">
  <diagram name="Page-1" id="19d8dcba-68ad-dc05-1034-9cf7b2a963f6">
    <mxGraphModel dx="1673" dy="880" grid="1" gridSize="10" guides="1" tooltips="1" connect="1" arrows="1" fold="1" page="1" pageScale="1" pageWidth="1100" pageHeight="850" background="none" math="0" shadow="0">
      <root>
        <mxCell id="0" />
        <mxCell id="1" parent="0" />
        <mxCell id="218ae93e1282097f-43" value="" style="edgeStyle=orthogonalEdgeStyle;rounded=1;html=1;labelBackgroundColor=none;endArrow=block;endFill=1;strokeColor=#4D4D4D;strokeWidth=2;fontFamily=Verdana;fontSize=12;fontStyle=1" parent="1" source="6257edae8c83ed4a-1" target="6257edae8c83ed4a-9" edge="1">
          <mxGeometry relative="1" as="geometry" />
        </mxCell>
        <mxCell id="stRpB6w3Rj6YGAbhUOT_-19" style="edgeStyle=orthogonalEdgeStyle;rounded=1;orthogonalLoop=1;jettySize=auto;html=1;exitX=1;exitY=0.5;exitDx=0;exitDy=0;entryX=1;entryY=0.5;entryDx=0;entryDy=0;strokeWidth=2;endArrow=block;endFill=1;" edge="1" parent="1" source="6257edae8c83ed4a-9" target="stRpB6w3Rj6YGAbhUOT_-18">
          <mxGeometry relative="1" as="geometry" />
        </mxCell>
        <mxCell id="stRpB6w3Rj6YGAbhUOT_-28" style="edgeStyle=orthogonalEdgeStyle;rounded=1;orthogonalLoop=1;jettySize=auto;html=1;exitX=1;exitY=0.5;exitDx=0;exitDy=0;entryX=1;entryY=0.5;entryDx=0;entryDy=0;strokeWidth=2;endArrow=block;endFill=1;" edge="1" parent="1" source="6257edae8c83ed4a-9" target="stRpB6w3Rj6YGAbhUOT_-27">
          <mxGeometry relative="1" as="geometry" />
        </mxCell>
        <mxCell id="6257edae8c83ed4a-9" value="User Info" style="whiteSpace=wrap;html=1;rounded=1;shadow=0;comic=0;strokeWidth=2;fontFamily=Verdana;align=center;fontSize=12;fontStyle=1" parent="1" vertex="1">
          <mxGeometry x="260" y="160" width="200" height="50" as="geometry" />
        </mxCell>
        <mxCell id="stRpB6w3Rj6YGAbhUOT_-30" style="edgeStyle=orthogonalEdgeStyle;rounded=1;orthogonalLoop=1;jettySize=auto;html=1;exitX=1;exitY=0.5;exitDx=0;exitDy=0;entryX=0.5;entryY=0;entryDx=0;entryDy=0;strokeWidth=2;endArrow=block;endFill=1;" edge="1" parent="1" source="6257edae8c83ed4a-1" target="stRpB6w3Rj6YGAbhUOT_-29">
          <mxGeometry relative="1" as="geometry" />
        </mxCell>
        <mxCell id="stRpB6w3Rj6YGAbhUOT_-36" style="edgeStyle=orthogonalEdgeStyle;rounded=1;orthogonalLoop=1;jettySize=auto;html=1;exitX=1;exitY=0.5;exitDx=0;exitDy=0;entryX=0.5;entryY=0;entryDx=0;entryDy=0;strokeWidth=2;endArrow=block;endFill=1;" edge="1" parent="1" source="6257edae8c83ed4a-1" target="stRpB6w3Rj6YGAbhUOT_-2">
          <mxGeometry relative="1" as="geometry" />
        </mxCell>
        <mxCell id="stRpB6w3Rj6YGAbhUOT_-37" style="edgeStyle=orthogonalEdgeStyle;rounded=1;orthogonalLoop=1;jettySize=auto;html=1;exitX=0;exitY=0.5;exitDx=0;exitDy=0;entryX=0.5;entryY=0;entryDx=0;entryDy=0;strokeWidth=2;endArrow=block;endFill=1;" edge="1" parent="1" source="6257edae8c83ed4a-1" target="stRpB6w3Rj6YGAbhUOT_-1">
          <mxGeometry relative="1" as="geometry" />
        </mxCell>
        <mxCell id="6257edae8c83ed4a-1" value="静态数据模型" style="whiteSpace=wrap;html=1;rounded=1;shadow=0;comic=0;strokeWidth=2;fontFamily=Verdana;align=center;fontSize=12;fontStyle=1" parent="1" vertex="1">
          <mxGeometry x="680" y="80" width="200" height="50" as="geometry" />
        </mxCell>
        <mxCell id="stRpB6w3Rj6YGAbhUOT_-15" style="edgeStyle=orthogonalEdgeStyle;rounded=1;orthogonalLoop=1;jettySize=auto;html=1;exitX=1;exitY=0.5;exitDx=0;exitDy=0;entryX=1;entryY=0.5;entryDx=0;entryDy=0;strokeWidth=2;endArrow=block;endFill=1;" edge="1" parent="1" source="stRpB6w3Rj6YGAbhUOT_-1" target="stRpB6w3Rj6YGAbhUOT_-13">
          <mxGeometry relative="1" as="geometry" />
        </mxCell>
        <mxCell id="stRpB6w3Rj6YGAbhUOT_-16" style="edgeStyle=orthogonalEdgeStyle;rounded=1;orthogonalLoop=1;jettySize=auto;html=1;exitX=1;exitY=0.5;exitDx=0;exitDy=0;entryX=1;entryY=0.5;entryDx=0;entryDy=0;strokeWidth=2;endArrow=block;endFill=1;" edge="1" parent="1" source="stRpB6w3Rj6YGAbhUOT_-1" target="stRpB6w3Rj6YGAbhUOT_-14">
          <mxGeometry relative="1" as="geometry" />
        </mxCell>
        <mxCell id="stRpB6w3Rj6YGAbhUOT_-1" value="SIG Info" style="whiteSpace=wrap;html=1;rounded=1;shadow=0;comic=0;strokeWidth=2;fontFamily=Verdana;align=center;fontSize=12;fontStyle=1" vertex="1" parent="1">
          <mxGeometry x="540" y="160" width="200" height="50" as="geometry" />
        </mxCell>
        <mxCell id="stRpB6w3Rj6YGAbhUOT_-10" style="edgeStyle=orthogonalEdgeStyle;rounded=1;orthogonalLoop=1;jettySize=auto;html=1;exitX=1;exitY=0.5;exitDx=0;exitDy=0;entryX=1;entryY=0.5;entryDx=0;entryDy=0;strokeWidth=2;endArrow=block;endFill=1;" edge="1" parent="1" source="stRpB6w3Rj6YGAbhUOT_-2" target="stRpB6w3Rj6YGAbhUOT_-6">
          <mxGeometry relative="1" as="geometry" />
        </mxCell>
        <mxCell id="stRpB6w3Rj6YGAbhUOT_-11" style="edgeStyle=orthogonalEdgeStyle;rounded=1;orthogonalLoop=1;jettySize=auto;html=1;exitX=1;exitY=0.5;exitDx=0;exitDy=0;entryX=1;entryY=0.5;entryDx=0;entryDy=0;strokeWidth=2;endArrow=block;endFill=1;" edge="1" parent="1" source="stRpB6w3Rj6YGAbhUOT_-2" target="stRpB6w3Rj6YGAbhUOT_-7">
          <mxGeometry relative="1" as="geometry" />
        </mxCell>
        <mxCell id="stRpB6w3Rj6YGAbhUOT_-12" style="edgeStyle=orthogonalEdgeStyle;rounded=1;orthogonalLoop=1;jettySize=auto;html=1;exitX=1;exitY=0.5;exitDx=0;exitDy=0;entryX=1;entryY=0.5;entryDx=0;entryDy=0;strokeWidth=2;endArrow=block;endFill=1;" edge="1" parent="1" source="stRpB6w3Rj6YGAbhUOT_-2" target="stRpB6w3Rj6YGAbhUOT_-8">
          <mxGeometry relative="1" as="geometry" />
        </mxCell>
        <mxCell id="stRpB6w3Rj6YGAbhUOT_-25" style="edgeStyle=orthogonalEdgeStyle;rounded=1;orthogonalLoop=1;jettySize=auto;html=1;exitX=1;exitY=0.5;exitDx=0;exitDy=0;entryX=1;entryY=0.5;entryDx=0;entryDy=0;strokeWidth=2;endArrow=block;endFill=1;" edge="1" parent="1" source="stRpB6w3Rj6YGAbhUOT_-2" target="stRpB6w3Rj6YGAbhUOT_-23">
          <mxGeometry relative="1" as="geometry" />
        </mxCell>
        <mxCell id="stRpB6w3Rj6YGAbhUOT_-26" style="edgeStyle=orthogonalEdgeStyle;rounded=1;orthogonalLoop=1;jettySize=auto;html=1;exitX=1;exitY=0.5;exitDx=0;exitDy=0;entryX=1;entryY=0.5;entryDx=0;entryDy=0;strokeWidth=2;endArrow=block;endFill=1;" edge="1" parent="1" source="stRpB6w3Rj6YGAbhUOT_-2" target="stRpB6w3Rj6YGAbhUOT_-24">
          <mxGeometry relative="1" as="geometry" />
        </mxCell>
        <mxCell id="stRpB6w3Rj6YGAbhUOT_-2" value="Gitee Info" style="whiteSpace=wrap;html=1;rounded=1;shadow=0;comic=0;strokeWidth=2;fontFamily=Verdana;align=center;fontSize=12;fontStyle=1" vertex="1" parent="1">
          <mxGeometry x="819" y="160" width="200" height="50" as="geometry" />
        </mxCell>
        <mxCell id="stRpB6w3Rj6YGAbhUOT_-6" value="PR" style="whiteSpace=wrap;html=1;rounded=1;shadow=0;comic=0;strokeWidth=2;fontFamily=Verdana;align=center;fontSize=12;fontStyle=1" vertex="1" parent="1">
          <mxGeometry x="880" y="240" width="101" height="50" as="geometry" />
        </mxCell>
        <mxCell id="stRpB6w3Rj6YGAbhUOT_-7" value="ISSUE" style="whiteSpace=wrap;html=1;rounded=1;shadow=0;comic=0;strokeWidth=2;fontFamily=Verdana;align=center;fontSize=12;fontStyle=1" vertex="1" parent="1">
          <mxGeometry x="880" y="310" width="101" height="50" as="geometry" />
        </mxCell>
        <mxCell id="stRpB6w3Rj6YGAbhUOT_-8" value="COMMIT" style="whiteSpace=wrap;html=1;rounded=1;shadow=0;comic=0;strokeWidth=2;fontFamily=Verdana;align=center;fontSize=12;fontStyle=1" vertex="1" parent="1">
          <mxGeometry x="880" y="385" width="101" height="50" as="geometry" />
        </mxCell>
        <mxCell id="stRpB6w3Rj6YGAbhUOT_-13" value="SIG Detail" style="whiteSpace=wrap;html=1;rounded=1;shadow=0;comic=0;strokeWidth=2;fontFamily=Verdana;align=center;fontSize=12;fontStyle=1" vertex="1" parent="1">
          <mxGeometry x="589.5" y="250" width="101" height="50" as="geometry" />
        </mxCell>
        <mxCell id="stRpB6w3Rj6YGAbhUOT_-14" value="SIG Daily" style="whiteSpace=wrap;html=1;rounded=1;shadow=0;comic=0;strokeWidth=2;fontFamily=Verdana;align=center;fontSize=12;fontStyle=1" vertex="1" parent="1">
          <mxGeometry x="589.5" y="330" width="101" height="50" as="geometry" />
        </mxCell>
        <mxCell id="stRpB6w3Rj6YGAbhUOT_-18" value="User Detail" style="whiteSpace=wrap;html=1;rounded=1;shadow=0;comic=0;strokeWidth=2;fontFamily=Verdana;align=center;fontSize=12;fontStyle=1" vertex="1" parent="1">
          <mxGeometry x="320" y="240" width="101" height="50" as="geometry" />
        </mxCell>
        <mxCell id="stRpB6w3Rj6YGAbhUOT_-23" value="DOCS" style="whiteSpace=wrap;html=1;rounded=1;shadow=0;comic=0;strokeWidth=2;fontFamily=Verdana;align=center;fontSize=12;fontStyle=1" vertex="1" parent="1">
          <mxGeometry x="880" y="460" width="101" height="50" as="geometry" />
        </mxCell>
        <mxCell id="stRpB6w3Rj6YGAbhUOT_-24" value="Warehouse" style="whiteSpace=wrap;html=1;rounded=1;shadow=0;comic=0;strokeWidth=2;fontFamily=Verdana;align=center;fontSize=12;fontStyle=1" vertex="1" parent="1">
          <mxGeometry x="880" y="537.5" width="101" height="50" as="geometry" />
        </mxCell>
        <mxCell id="stRpB6w3Rj6YGAbhUOT_-27" value="Score" style="whiteSpace=wrap;html=1;rounded=1;shadow=0;comic=0;strokeWidth=2;fontFamily=Verdana;align=center;fontSize=12;fontStyle=1" vertex="1" parent="1">
          <mxGeometry x="320" y="330" width="101" height="50" as="geometry" />
        </mxCell>
        <mxCell id="stRpB6w3Rj6YGAbhUOT_-34" style="edgeStyle=orthogonalEdgeStyle;rounded=1;orthogonalLoop=1;jettySize=auto;html=1;exitX=1;exitY=0.5;exitDx=0;exitDy=0;entryX=1;entryY=0.5;entryDx=0;entryDy=0;strokeWidth=2;endArrow=block;endFill=1;" edge="1" parent="1" source="stRpB6w3Rj6YGAbhUOT_-29" target="stRpB6w3Rj6YGAbhUOT_-31">
          <mxGeometry relative="1" as="geometry" />
        </mxCell>
        <mxCell id="stRpB6w3Rj6YGAbhUOT_-35" style="edgeStyle=orthogonalEdgeStyle;rounded=1;orthogonalLoop=1;jettySize=auto;html=1;exitX=1;exitY=0.5;exitDx=0;exitDy=0;entryX=1;entryY=0.5;entryDx=0;entryDy=0;strokeWidth=2;endArrow=block;endFill=1;" edge="1" parent="1" source="stRpB6w3Rj6YGAbhUOT_-29" target="stRpB6w3Rj6YGAbhUOT_-32">
          <mxGeometry relative="1" as="geometry" />
        </mxCell>
        <mxCell id="stRpB6w3Rj6YGAbhUOT_-29" value="System Info" style="whiteSpace=wrap;html=1;rounded=1;shadow=0;comic=0;strokeWidth=2;fontFamily=Verdana;align=center;fontSize=12;fontStyle=1" vertex="1" parent="1">
          <mxGeometry x="1090" y="160" width="200" height="50" as="geometry" />
        </mxCell>
        <mxCell id="stRpB6w3Rj6YGAbhUOT_-31" value="Log" style="whiteSpace=wrap;html=1;rounded=1;shadow=0;comic=0;strokeWidth=2;fontFamily=Verdana;align=center;fontSize=12;fontStyle=1" vertex="1" parent="1">
          <mxGeometry x="1139.5" y="240" width="101" height="50" as="geometry" />
        </mxCell>
        <mxCell id="stRpB6w3Rj6YGAbhUOT_-32" value="Action" style="whiteSpace=wrap;html=1;rounded=1;shadow=0;comic=0;strokeWidth=2;fontFamily=Verdana;align=center;fontSize=12;fontStyle=1" vertex="1" parent="1">
          <mxGeometry x="1139.5" y="330" width="101" height="50" as="geometry" />
        </mxCell>
      </root>
    </mxGraphModel>
  </diagram>
</mxfile>
